<?xml version="1.0" encoding="utf-8"?>
<!-- Generator: Adobe Illustrator 22.1.0, SVG Export Plug-In . SVG Version: 6.00 Build 0)  -->
<svg version="1.1" id="Layer_1" xmlns="http://www.w3.org/2000/svg" xmlns:xlink="http://www.w3.org/1999/xlink" x="0px" y="0px"
	 viewBox="0 0 1080 1080" style="enable-background:new 0 0 1080 1080;" xml:space="preserve">
<style type="text/css">
	.st0{opacity:0.25;}
	.st1{fill:#E87F2E;}
	.st2{fill:#E6AD31;}
	.st3{fill:#FFFFFF;}
	.st4{fill:none;}
</style>
<path class="st0" d="M973,761.3c0.1-7.2-4.8-14.4-15-19.8L576.2,535c-20-10.8-52.3-10.8-72.3,0L122,741.5
	c-10.1,5.5-15.1,12.7-15,19.8c0,0.1,0,57.1,0,57.2c-0.1,7.2,4.8,14.4,15,19.8l381.9,206.5c20,10.8,52.3,10.8,72.3,0L958,838.4
	c10.1-5.5,15.1-12.7,15-19.8C973,818.4,973,761.5,973,761.3z"/>
<path class="st1" d="M973,738.2c0.1-7.2-4.8-14.4-15-19.8L576.2,511.9c-20-10.8-52.3-10.8-72.3,0L122,718.4
	c-10.1,5.5-15.1,12.7-15,19.8c0,0.1,0,57.1,0,57.2c-0.1,7.2,4.8,14.4,15,19.8l381.9,206.5c20,10.8,52.3,10.8,72.3,0L958,815.3
	c10.1-5.5,15.1-12.7,15-19.8C973,795.3,973,738.4,973,738.2z"/>
<path class="st2" d="M958,757.5L576.2,963.9c-20,10.8-52.3,10.8-72.3,0L122,757.5c-20-10.8-20-28.3,0-39.1l381.9-206.5
	c20-10.8,52.3-10.8,72.3,0L958,718.4C978,729.2,978,746.7,958,757.5z"/>
<polygon class="st0" points="363.8,812.5 122,718.4 300.6,621.8 "/>
<path class="st3" d="M797,686.1c-0.2-0.9-161.4-588.3-161.8-589.5c-4.9-26.1-45.6-46.5-95.2-46.5s-90.3,20.4-95.2,46.5
	c-0.5,1.5-1,3-1.2,4.5c-0.5,1.4-160.3,583.9-160.6,585c-2.3,7.5-3.5,15.1-3.5,22.9c0,77.8,116.6,140.8,260.4,140.8
	s260.4-63,260.4-140.8C800.4,701.2,799.3,693.5,797,686.1z"/>
<line class="st4" x1="540" y1="101.9" x2="540" y2="709"/>
<path class="st1" d="M412.5,214.1L412.5,214.1c-0.7,3-1.2,6.1-1.2,9.2c0,38.4,57.6,69.5,128.6,69.5s128.6-31.1,128.6-69.5
	c0-3.1-0.4-6.2-1.2-9.2l0,0c0.2,0.8-32.2-117.1-32.3-117.5c-4.9-26.1-45.6-46.5-95.2-46.5s-90.3,20.4-95.2,46.5
	c-0.5,1.5-1,3-1.2,4.5C443.4,101.7,412.3,214.8,412.5,214.1z"/>
<line class="st4" x1="540" y1="223.3" x2="540" y2="344.7"/>
<path class="st1" d="M732.6,451.5L732.6,451.5c0.2,0.8-33.3-121.4-33.2-121c1.4,4.6,2.2,9.4,2.2,14.3c0,48.2-72.3,87.4-161.6,87.4
	S378.4,393,378.4,344.7c0-4.9,0.8-9.6,2.2-14.3c0-0.2-33.4,121.8-33.2,121l0,0c-1.2,4.8-1.9,9.7-1.9,14.7
	c0,58.1,87.1,105.2,194.5,105.2s194.5-47.1,194.5-105.2C734.5,461.2,733.8,456.3,732.6,451.5z"/>
<path class="st1" d="M797,686.1c-0.1-0.2-32.5-118.5-32.4-118.2c1.9,6.4,2.9,13,2.9,19.7c0,67.9-101.9,123-227.5,123
	s-227.5-55.1-227.5-123c0-6.7,1-13.3,2.9-19.7c0.2-0.8-32.4,118-32.4,118.2c-2.3,7.5-3.5,15.1-3.5,22.9
	c0,77.8,116.6,140.8,260.4,140.8s260.4-63,260.4-140.8C800.4,701.2,799.3,693.5,797,686.1z"/>
<line class="st4" x1="540" y1="466.2" x2="540" y2="587.6"/>
<ellipse class="st2" cx="540" cy="86" rx="65" ry="26"/>
<path class="st0" d="M357.5,709c0-7.8,1.2-15.4,3.5-22.9c0.3-1.1,160.1-583.6,160.6-585c0.2-1.5,0.7-3,1.2-4.5
	c3.5-18.8,25.6-34.6,56.2-42c-11.9-2.9-25.1-4.5-39-4.5c-49.6,0-90.3,20.4-95.2,46.5c-0.5,1.5-1,3-1.2,4.5
	c-0.5,1.4-160.3,583.9-160.6,585c-2.3,7.5-3.5,15.1-3.5,22.9c0,77.8,116.6,140.8,260.4,140.8c13.3,0,26.3-0.5,39-1.6
	C453.6,838.1,357.5,779.6,357.5,709z"/>
</svg>
