<?xml version="1.0" encoding="utf-8"?>
<!-- Generator: Adobe Illustrator 22.1.0, SVG Export Plug-In . SVG Version: 6.00 Build 0)  -->
<svg version="1.1" id="Layer_1" xmlns="http://www.w3.org/2000/svg" xmlns:xlink="http://www.w3.org/1999/xlink" x="0px" y="0px"
	 viewBox="0 0 512 512" style="enable-background:new 0 0 512 512;" xml:space="preserve">
<style type="text/css">
	.st0{fill:#FFFFFF;}
</style>
<path class="st0" d="M362.7,126.3c-13.5,0-24.4,10.9-24.4,24.4s10.9,24.4,24.4,24.4c13.5,0,24.4-10.9,24.4-24.4
	S376.2,126.3,362.7,126.3z"/>
<path class="st0" d="M256.3,153.8c-56.9,0-103.1,46.3-103.1,103.1c0,56.9,46.3,103.1,103.1,103.1c56.9,0,103.1-46.3,103.1-103.1
	S313.2,153.8,256.3,153.8z M256.3,316.4c-32.8,0-59.5-26.7-59.5-59.6c0-32.8,26.7-59.5,59.5-59.5c32.8,0,59.5,26.7,59.5,59.5
	C315.8,289.7,289.1,316.4,256.3,316.4z"/>
<path class="st0" d="M355.5,56.7H157.1c-55.7,0-101,45.3-101,101v198.4c0,55.7,45.3,101,101,101h198.4c55.7,0,101-45.3,101-101
	V157.7C456.5,102,411.2,56.7,355.5,56.7z M412.9,356.1c0,31.7-25.8,57.4-57.4,57.4H157.1c-31.7,0-57.4-25.8-57.4-57.4V157.7
	c0-31.7,25.8-57.4,57.4-57.4h198.4c31.7,0,57.4,25.8,57.4,57.4V356.1z"/>
</svg>
