<?xml version="1.0" encoding="utf-8"?>
<!-- Generator: Adobe Illustrator 22.1.0, SVG Export Plug-In . SVG Version: 6.00 Build 0)  -->
<svg version="1.1" id="Capa_1" xmlns="http://www.w3.org/2000/svg" xmlns:xlink="http://www.w3.org/1999/xlink" x="0px" y="0px"
	 viewBox="0 0 512 512" style="enable-background:new 0 0 512 512;" xml:space="preserve">
<style type="text/css">
	.st0{fill:#FFFFFF;}
</style>
<path class="st0" d="M127.5,65.1c-27.2,0-45,17.8-45,41.3c0,23,17.3,41.3,43.9,41.3h0.5c27.8,0,45.1-18.5,45-41.3
	C171.5,82.9,154.7,65.1,127.5,65.1z"/>
<rect x="87.2" y="180.4" class="st0" width="79.6" height="239.2"/>
<path class="st0" d="M290.4,419.6V286c0-7.2,0.5-14.3,2.6-19.4c5.7-14.3,18.8-29.1,40.8-29.1c28.9,0,40.3,22,40.3,54.1v128h79.4
	V282.5c0-73.5-39.1-107.6-91.5-107.6c-42.3,0-61.1,23.3-71.6,39.5v0.8h-0.5c0.1-0.3,0.4-0.5,0.5-0.8v-33.9h-79.6
	c1,22.4,0,239.2,0,239.2H290.4z"/>
</svg>
