<?xml version="1.0" encoding="utf-8"?>
<!-- Generator: Adobe Illustrator 22.1.0, SVG Export Plug-In . SVG Version: 6.00 Build 0)  -->
<svg version="1.1" id="Capa_1" xmlns="http://www.w3.org/2000/svg" xmlns:xlink="http://www.w3.org/1999/xlink" x="0px" y="0px"
	 viewBox="0 0 512 512" style="enable-background:new 0 0 512 512;" xml:space="preserve">
<style type="text/css">
	.st0{fill:#FFFFFF;}
</style>
<path class="st0" d="M256,44.6C139.3,44.6,44.4,139.4,44.4,256S139.3,467.4,256,467.4S467.6,372.6,467.6,256S372.7,44.6,256,44.6z
	 M256,77.8c45.1,0,86.3,16.8,117.8,44.3c-4.9,6.8-32,40.6-92.3,63.3c-27.9-51-58.5-93.3-65.8-103.1C228.7,79.3,242.1,77.8,256,77.8z
	 M179.2,95.1c6.1,8.5,36.8,51.2,65.4,101.8C167.7,217.1,99.5,218.4,83,218.4h-1.7C93.1,163.8,129.9,118.6,179.2,95.1z M77.1,256.1
	c0-1.4,0.1-3,0.1-4.4c1,0,2.6,0,4.7,0c22.2,0,99.3-1.8,178.6-25.4c4.8,9.5,9.4,19,13.7,28.6c-2.1,0.6-4,1.2-6,1.8
	c-89.3,28.9-138.4,105.3-146.1,117.6C94.2,342.8,77.1,301.5,77.1,256.1z M256,434.9c-41.1,0-78.9-13.9-109.1-37.2
	c5.1-10,42.3-76.8,140.1-110.9h0.1c24.6,63.8,35,117.5,37.8,134.2C303.8,429.9,280.4,434.9,256,434.9z M357.3,403.3
	c-2.5-13.7-12.1-64-34.3-125.3c12.5-1.9,24.7-2.7,36-2.7c37.4,0,66.7,8.2,73.5,10.3C424.3,334.1,396.4,376.3,357.3,403.3z
	 M352.1,245.3c-13.1,0-27,0.6-40.8,2.3c-1.2-2.9-2.3-5.7-3.5-8.6c-3.5-8.4-7.4-16.9-11.4-25.1c62.5-25.7,92.7-61.5,98.9-69.5
	c24.2,29.9,38.9,67.6,39.5,108.8C426.7,251.7,392.8,245.3,352.1,245.3z"/>
</svg>
