<?xml version="1.0" encoding="utf-8"?>
<!-- Generator: Adobe Illustrator 22.1.0, SVG Export Plug-In . SVG Version: 6.00 Build 0)  -->
<svg version="1.1" id="Capa_1" xmlns="http://www.w3.org/2000/svg" xmlns:xlink="http://www.w3.org/1999/xlink" x="0px" y="0px"
	 viewBox="0 0 512 512" style="enable-background:new 0 0 512 512;" xml:space="preserve">
<style type="text/css">
	.st0{fill:#FFFFFF;}
</style>
<path class="st0" d="M234.6,70.1c-68.6,7.7-137,63.3-139.9,142.6c-1.7,48.5,12,84.8,58.1,95c20-35.2-6.4-43-10.5-68.6
	c-16.9-104.6,120.8-176,192.8-103c49.9,50.6,17,206.2-63.3,190.1c-77-15.5,37.7-139.4-23.8-163.7c-49.9-19.8-76.4,60.5-52.8,100.4
	C181.3,331.5,151.4,396,163.5,482c39.3-28.5,52.5-82.9,63.3-139.9c19.8,12,30.3,24.4,55.5,26.4c92.8,7.2,144.7-92.7,131.8-185
	C403,101.9,321.4,60.3,234.6,70.1z"/>
</svg>
